<svg width="32" height="32" viewBox="0 0 32 32" fill="none" xmlns="http://www.w3.org/2000/svg">
<path d="M18.25 1.40002L31.45 14.6C31.65 14.8 31.7917 15.0167 31.875 15.25C31.9583 15.4834 32 15.7334 32 16C32 16.2667 31.9583 16.5167 31.875 16.75C31.7917 16.9834 31.65 17.2 31.45 17.4L18.25 30.6C17.8833 30.9667 17.425 31.1584 16.875 31.175C16.325 31.1917 15.85 31 15.45 30.6C15.05 30.2334 14.8417 29.775 14.825 29.225C14.8083 28.675 15 28.2 15.4 27.8L25.2 18L2.85 18C2.28333 18 1.80833 17.8084 1.425 17.425C1.04167 17.0417 0.850002 16.5667 0.850002 16C0.850002 15.4334 1.04167 14.9584 1.425 14.575C1.80833 14.1917 2.28333 14 2.85 14L25.2 14L15.4 4.20002C15.0333 3.83336 14.8417 3.36669 14.825 2.80002C14.8083 2.23335 15 1.76669 15.4 1.40002C15.7667 1.00002 16.2333 0.800023 16.8 0.800023C17.3667 0.800023 17.85 1.00002 18.25 1.40002Z" fill="#969696"/>
</svg>
