<svg width="320" height="320" viewBox="0 0 320 320" fill="none" xmlns="http://www.w3.org/2000/svg">
<g clip-path="url(#clip0_156_627)">
<path d="M227.275 276.4L216.392 273.551C212.552 272.487 209.267 269.983 207.227 266.559C205.241 263.1 204.712 258.994 205.751 255.143C206.217 253.972 206.388 252.705 206.259 251.451C206.129 250.197 205.705 248.993 205.009 247.942C203.964 247.233 202.755 246.789 201.501 246.649C200.246 246.51 198.98 246.679 197.805 247.142C195.906 247.658 193.921 247.792 191.969 247.54C190.017 247.287 188.135 246.653 186.43 245.671C184.724 244.689 183.23 243.38 182.031 241.819C180.832 240.258 179.953 238.475 179.445 236.574L176.828 226.925C175.829 223.069 176.391 218.976 178.39 215.531C180.389 212.087 183.665 209.57 187.508 208.524C190.708 207.636 192.825 206.124 193.297 204.308C193.418 203.05 193.216 201.782 192.703 200.627C192.19 199.472 191.39 198.469 190.375 197.715C188.989 196.325 187.897 194.668 187.172 192.844C187.411 195.632 187.143 198.44 186.375 201.131C185.609 204.185 184.224 207.049 182.304 209.545C180.384 212.04 177.966 214.114 175.21 215.637L159.569 224.597C156.24 226.456 152.498 227.436 148.686 227.445C146.751 227.439 144.818 227.211 142.935 226.765C137.381 225.247 132.632 221.648 129.661 216.716L128.614 214.908C123.238 205.708 115.917 205.708 110.629 214.908L109.629 216.637C108.192 219.117 106.283 221.289 104.004 223.027C101.724 224.765 99.1269 226.036 96.3548 226.765C94.5103 227.268 92.6097 227.537 90.6982 227.565C86.8591 227.553 83.0911 226.511 79.7914 224.548L64.2594 215.588C61.5278 214.019 59.1341 211.927 57.2122 209.432C55.2902 206.936 53.8824 204.085 53.0635 201.043C51.4428 194.914 52.2811 188.394 55.3996 182.875C56.631 181.282 57.4431 179.405 57.7591 177.417C58.075 175.429 57.8813 173.394 57.2044 171.498C55.9045 169.964 54.2442 168.782 52.3682 168.059C50.4922 167.337 48.4623 167.097 46.4695 167.362C40.1233 167.345 34.0404 164.815 29.5546 160.327C25.0687 155.838 22.5434 149.755 22.5308 143.409V127.536C22.5434 121.19 25.0687 115.107 29.5546 110.618C34.0404 106.129 40.1233 103.599 46.4695 103.582C48.4664 103.842 50.4997 103.595 52.376 102.864C54.2523 102.132 55.9095 100.941 57.2044 99.3987C57.9041 97.5079 58.107 95.4686 57.7903 93.4775C57.4737 91.4864 56.6514 89.6104 55.3996 88.0299C52.2843 82.509 51.4463 75.9905 53.0635 69.8611C53.8588 66.8091 55.2566 63.9483 57.1809 61.4495C59.1052 58.9507 61.5119 56.865 64.2594 55.3164L79.8852 46.396C84.8903 43.5081 90.8361 42.7111 96.4251 44.1791C102.014 45.6471 106.798 49.2614 109.738 54.2363L110.785 56.0449C116.137 65.2854 123.442 65.2854 128.794 56.0449L129.763 54.3564C131.202 51.8711 133.113 49.6951 135.396 47.9527C137.679 46.2104 140.283 44.9359 143.06 44.2035C145.837 43.4712 148.739 43.295 151.584 43.685C154.429 44.0749 157.17 45.0237 159.647 46.4761L175.21 55.3965C177.947 56.9637 180.341 59.0605 182.257 61.5648C184.174 64.069 185.577 66.9304 186.375 69.9812C188.042 76.0888 187.218 82.6082 184.086 88.11C182.855 89.7107 182.04 91.5928 181.718 93.5859C181.397 95.579 181.577 97.6205 182.242 99.5266C183.557 101.051 185.231 102.227 187.109 102.95C188.988 103.673 191.018 103.921 193.016 103.671C199.359 103.692 205.433 106.223 209.915 110.712C214.398 115.2 216.918 121.28 216.931 127.624V143.497C216.918 149.84 214.398 155.921 209.915 160.41C205.433 164.898 199.359 167.429 193.016 167.45C191.019 167.19 188.982 167.433 187.101 168.155C185.221 168.877 183.552 170.056 182.242 171.586C181.554 173.482 181.365 175.523 181.687 177.514C182.009 179.505 182.835 181.38 184.086 182.962C184.871 184.346 185.526 185.801 186.039 187.307C186.039 187.227 186.039 187.139 186.039 187.059C186.028 185.096 186.406 183.149 187.156 181.334C187.906 179.52 189.012 177.873 190.406 176.49L198.477 168.49C201.029 165.93 204.488 164.484 208.103 164.469C211.717 164.454 215.194 165.871 217.767 168.41L218.783 169.37C223.495 174.034 227.954 172.866 229.674 166.442L230.002 165.234C230.465 163.495 231.264 161.864 232.362 160.438C233.459 159.011 234.83 157.817 236.393 156.924C237.956 156.031 239.677 155.457 241.464 155.235C243.25 155.014 245.066 155.15 246.8 155.634L257.691 158.49C261.54 159.522 264.822 162.036 266.824 165.482C268.836 168.93 269.412 173.031 268.426 176.899C267.906 178.048 267.701 179.314 267.824 180.569C267.948 181.824 268.396 183.025 269.129 184.051C270.157 184.781 271.353 185.237 272.606 185.377C273.858 185.517 275.122 185.336 276.286 184.851C280.139 183.814 284.249 184.348 287.708 186.338C291.167 188.327 293.698 191.607 294.74 195.459L297.271 205.06C297.785 206.965 297.925 208.953 297.669 210.909C297.414 212.866 296.772 214.752 295.787 216.461C294.801 218.17 293.492 219.669 291.927 220.87C290.362 222.071 288.575 222.951 286.669 223.461C283.469 224.381 281.344 225.909 280.864 227.725C280.716 228.986 280.916 230.264 281.434 231.423C281.953 232.582 282.771 233.579 283.809 234.31C285.2 235.71 286.297 237.374 287.036 239.204C287.775 241.033 288.142 242.992 288.114 244.966C288.149 246.94 287.776 248.902 287.021 250.727C286.265 252.552 285.144 254.202 283.723 255.574L275.77 263.575C274.007 265.224 271.869 266.424 269.543 267.071C268.379 267.397 267.173 267.558 265.965 267.551C262.383 267.536 258.95 266.141 256.371 263.655L255.363 262.735C250.658 258.031 246.192 259.158 244.472 265.591L244.159 266.839C243.22 270.333 240.933 273.311 237.799 275.119C236.743 275.717 235.621 276.189 234.455 276.528C233.343 276.801 232.202 276.934 231.057 276.927C229.78 276.923 228.504 276.746 227.275 276.4ZM212.814 240.07C214.504 242.002 215.653 244.347 216.142 246.867C216.631 249.387 216.439 251.99 215.595 254.414C215.4 255.178 215.363 255.974 215.478 256.754C215.593 257.534 215.86 258.283 216.267 258.958C217.031 260.33 218.298 261.353 219.798 261.815L230.025 264.503C231.247 264.815 232.542 264.674 233.666 264.103C234.758 263.397 235.562 262.334 235.955 261.095L236.268 260.006C236.74 257.5 237.86 255.16 239.518 253.222C241.176 251.283 243.318 249.813 245.722 248.958C248.249 248.437 250.869 248.607 253.308 249.452C255.747 250.297 257.91 251.785 259.574 253.758L260.379 254.607C261.296 255.494 262.524 255.986 263.801 255.975C265.047 255.895 266.232 255.415 267.184 254.607L274.567 247.095C275.132 246.544 275.585 245.888 275.895 245.163C276.205 244.438 276.371 243.658 276.379 242.87C276.377 241.255 275.76 239.701 274.653 238.526C272.693 236.876 271.208 234.729 270.363 232.311C269.519 229.892 269.342 227.292 269.848 224.781C270.666 222.353 272.12 220.189 274.059 218.514C275.998 216.839 278.351 215.717 280.872 215.261C282.421 214.833 283.743 213.815 284.552 212.426C285.361 211.037 285.593 209.387 285.2 207.828L282.802 198.868C282.588 198.1 282.222 197.382 281.731 196.754C281.24 196.127 280.636 195.603 279.942 195.211C279.248 194.82 278.483 194.569 277.692 194.473C276.901 194.377 276.1 194.437 275.332 194.651C272.912 195.479 270.312 195.657 267.801 195.17C265.29 194.683 262.955 193.547 261.019 191.875C259.328 189.944 258.179 187.594 257.707 185.071C257.234 182.548 257.454 179.943 258.332 177.531C258.521 176.766 258.551 175.972 258.433 175.193C258.315 174.415 258.044 173.668 257.636 172.994C256.866 171.609 255.587 170.583 254.066 170.139L243.893 167.45C243.278 167.276 242.637 167.227 242.003 167.305C241.368 167.384 240.752 167.588 240.198 167.906C239.643 168.224 239.164 168.65 238.776 169.158C238.388 169.666 238.1 170.247 237.94 170.866L237.627 171.994C237.142 174.513 236.001 176.86 234.315 178.793C232.628 180.727 230.463 182.179 228.033 183.002C225.53 183.477 222.945 183.283 220.541 182.44C218.136 181.597 215.997 180.136 214.337 178.202L213.532 177.403C212.926 176.817 212.177 176.398 211.361 176.188C210.544 175.977 209.69 175.983 208.876 176.202C208.098 176.472 207.378 176.879 206.743 177.403L199.36 184.883C198.775 185.427 198.307 186.088 197.993 186.822C197.678 187.556 197.521 188.349 197.532 189.147C197.533 190.753 198.16 192.294 199.282 193.443C201.219 195.119 202.682 197.275 203.524 199.694C204.367 202.113 204.564 204.711 204.087 207.228C203.257 209.647 201.802 211.801 199.868 213.474C197.934 215.146 195.591 216.276 193.078 216.748C192.305 216.95 191.574 217.303 190.938 217.786C190.301 218.27 189.769 218.874 189.367 219.565C188.965 220.256 188.7 221.019 188.594 221.811C188.488 222.603 188.544 223.409 188.75 224.181L191.149 233.102C191.567 234.643 192.577 235.957 193.961 236.754C195.345 237.552 196.988 237.769 198.532 237.358C200.194 236.895 201.908 236.653 203.634 236.638C205.312 236.569 206.99 236.837 208.563 237.426C210.137 238.016 211.578 238.915 212.798 240.07H212.814ZM86.6121 58.0128L70.9941 67.0133C69.807 67.7011 68.7647 68.6158 67.9315 69.7058C67.0982 70.7958 66.4869 72.0392 66.1345 73.3652C65.773 74.673 65.6737 76.0398 65.8454 77.3859C66.0171 78.7319 66.4563 80.0301 67.1346 81.2054C69.6063 84.837 71.0737 89.057 71.3926 93.4384C71.7115 97.8198 70.867 102.208 68.9471 106.159C66.5046 109.817 63.1381 112.758 59.181 114.679C55.2239 116.6 50.8234 117.432 46.4382 117.088C43.6798 117.088 41.0368 118.184 39.0863 120.134C37.1358 122.085 36.0392 124.73 36.0392 127.488V143.361C36.0392 146.119 37.1358 148.764 39.0863 150.715C41.0368 152.665 43.6798 153.762 46.4382 153.762C50.8265 153.428 55.2247 154.268 59.181 156.195C63.1374 158.123 66.5052 161.069 68.9471 164.73C70.8675 168.674 71.7115 173.056 71.3926 177.431C71.0736 181.806 69.6066 186.02 67.1346 189.643C66.4564 190.826 66.0171 192.131 65.8454 193.483C65.6738 194.836 65.7733 196.209 66.1345 197.524C66.8484 200.174 68.5683 202.439 70.9316 203.836L86.5574 212.756C87.4725 213.337 88.5011 213.72 89.5732 213.88C90.6452 214.04 91.7395 213.973 92.7843 213.685C94.9518 213.119 96.8034 211.718 97.9408 209.788L98.9486 208.1C100.843 204.146 103.759 200.765 107.387 198.301C111.014 195.837 115.224 194.379 119.598 194.075C123.988 194.348 128.231 195.793 131.872 198.26C135.514 200.727 138.421 204.125 140.302 208.1L141.318 209.788C141.85 210.736 142.572 211.562 143.443 212.212C144.314 212.862 145.313 213.323 146.373 213.565C147.399 213.852 148.472 213.929 149.529 213.791C150.586 213.654 151.603 213.305 152.522 212.765L168.147 203.764C170.545 202.375 172.3 200.094 173.023 197.419C173.388 196.111 173.485 194.744 173.312 193.398C173.139 192.051 172.699 190.752 172.015 189.579C169.537 185.95 168.059 181.729 167.741 177.346C167.424 172.963 168.273 168.574 170.202 164.626C172.642 160.966 176.012 158.025 179.968 156.104C183.924 154.183 188.327 153.352 192.711 153.697C194.079 153.705 195.431 153.441 196.696 152.921C197.961 152.401 199.111 151.635 200.079 150.668C201.046 149.701 201.817 148.551 202.337 147.286C202.857 146.021 203.118 144.665 203.11 143.297V127.376C203.11 124.617 202.014 121.972 200.063 120.022C198.113 118.071 195.47 116.976 192.711 116.976C188.328 117.32 183.931 116.488 179.976 114.567C176.022 112.646 172.649 109.706 170.21 106.047C168.28 102.098 167.431 97.7066 167.749 93.3222C168.067 88.9378 169.544 84.7166 172.023 81.0862C172.707 79.9147 173.146 78.6171 173.32 77.2716C173.493 75.9261 173.396 74.5603 173.03 73.2538C172.314 70.5942 170.589 68.3161 168.226 66.901L152.592 57.9806C151.65 57.4265 150.612 57.0644 149.529 56.9141C148.447 56.7639 147.344 56.828 146.287 57.1046C145.23 57.3811 144.243 57.8645 143.373 58.5255C142.503 59.1865 141.766 60.0121 141.216 60.9563L140.263 62.6849C138.361 66.6516 135.434 70.0386 131.786 72.4969C128.138 74.9553 123.903 76.3963 119.512 76.67C115.134 76.3981 110.909 74.9566 107.277 72.4969C103.645 70.0373 100.74 66.6492 98.8627 62.6849L97.8548 60.8372C97.1022 59.6319 96.0586 58.638 94.8156 57.9493C93.5727 57.2607 92.1739 56.8994 90.7529 56.9005C89.2933 56.8854 87.8532 57.2703 86.5965 58.0128H86.6121ZM216.47 221.5C215.007 216.07 215.76 210.281 218.564 205.405C221.368 200.529 225.994 196.966 231.424 195.499C234.121 194.764 236.933 194.569 239.706 194.925C242.478 195.281 245.15 196.181 247.573 197.574C249.996 198.968 252.121 200.827 253.824 203.044C255.526 205.26 256.775 207.792 257.496 210.492C258.212 213.191 258.391 216.005 258.019 218.773C257.648 221.54 256.734 224.208 255.331 226.623C253.929 229.037 252.067 231.152 249.847 232.846C247.627 234.54 245.093 235.779 242.393 236.493C240.624 236.966 238.795 237.208 236.963 237.213C232.291 237.218 227.75 235.681 224.041 232.84C220.332 229.999 217.667 226.013 216.455 221.5H216.47ZM233.83 204.54C232.331 204.943 230.926 205.64 229.697 206.589C228.469 207.538 227.443 208.721 226.674 210.069C225.904 211.417 225.405 212.904 225.213 214.444C225.02 215.985 225.134 217.548 225.549 219.044C226.367 222.078 228.353 224.665 231.072 226.239C233.792 227.813 237.027 228.247 240.065 227.445C243.081 226.613 245.641 224.619 247.19 221.9C248.739 219.181 249.153 215.96 248.331 212.94C247.69 210.417 246.218 208.179 244.159 206.585C242.1 204.99 239.567 204.13 236.963 204.14C235.9 204.133 234.843 204.267 233.815 204.54H233.83ZM85.737 135.416C85.736 130.972 86.6077 126.572 88.3075 122.466C90.0073 118.36 92.5019 114.63 95.6438 111.487C98.7856 108.345 102.515 105.852 106.621 104.151C110.726 102.45 115.123 101.575 119.567 101.575C124.014 101.57 128.419 102.443 132.528 104.142C136.638 105.841 140.375 108.333 143.521 111.475C146.667 114.618 149.163 118.35 150.865 122.458C152.568 126.566 153.444 130.969 153.444 135.416C153.447 139.865 152.574 144.272 150.873 148.384C149.172 152.495 146.675 156.23 143.529 159.376C140.383 162.522 136.647 165.017 132.536 166.718C128.425 168.42 124.016 169.293 119.567 169.29C115.118 169.291 110.715 168.415 106.605 166.712C102.495 165.008 98.7643 162.511 95.6203 159.364C92.4764 156.216 89.9824 152.48 88.284 148.368C86.5857 144.256 85.7151 139.849 85.7214 135.4L85.737 135.416ZM99.2612 135.416C99.2654 140.803 101.408 145.969 105.215 149.781C109.021 153.593 114.18 155.74 119.567 155.753C124.959 155.747 130.13 153.602 133.943 149.79C137.755 145.977 139.897 140.808 139.904 135.416C139.9 130.024 137.756 124.853 133.943 121.04C130.13 117.227 124.959 115.083 119.567 115.079C114.184 115.094 109.026 117.241 105.222 121.049C101.418 124.858 99.2774 130.018 99.269 135.4L99.2612 135.416Z" fill="#7E92F7"/>
</g>
<defs>
<clipPath id="clip0_156_627">
<rect width="320" height="320" fill="white"/>
</clipPath>
</defs>
</svg>
