<svg width="136" height="204" viewBox="0 0 136 204" fill="none" xmlns="http://www.w3.org/2000/svg">
<path fill-rule="evenodd" clip-rule="evenodd" d="M61.9633 0H0.983217V111.43C5.10695 102.66 11.0477 94.8819 18.403 88.6156V17.55H61.9578C73.5075 17.55 84.5894 22.1731 92.7552 30.4003C100.921 38.6276 105.513 49.7854 105.513 61.4197C105.513 73.0539 100.927 84.2117 92.7552 92.4389C84.5894 100.666 73.5075 105.289 61.9578 105.289C53.8083 105.569 45.9852 108.554 39.6908 113.768C33.3964 118.989 28.9898 126.153 27.1564 134.156C25.3176 142.153 26.1554 150.545 29.5338 158.016C32.9122 165.487 38.6462 171.628 45.8437 175.484V142.58C45.7676 137.897 47.3507 133.345 50.2993 129.73C53.2534 126.115 57.3826 123.672 61.9578 122.839C65.0969 122.839 68.2142 122.593 71.277 122.116L111.921 204H136L91.8086 114.974C96.6287 112.251 101.095 108.855 105.072 104.846C116.507 93.3263 122.932 77.7044 122.932 61.4142C122.932 45.124 116.507 29.502 105.072 17.9828C93.642 6.46897 78.1318 0 61.9633 0ZM24.9422 24.1286H61.9633C71.783 24.1286 81.2001 28.056 88.1419 35.0508C95.0837 42.0456 98.9844 51.5272 98.9844 61.4197C98.9844 71.3121 95.0837 80.7937 88.1419 87.7885C81.2001 94.7833 71.783 98.7107 61.9633 98.7107C54.7984 98.7107 47.7478 100.491 41.4317 103.892C35.1155 107.294 29.7296 112.213 25.7474 118.211C21.7705 124.209 19.3169 131.105 18.6152 138.286C17.9134 145.467 18.9797 152.708 21.7215 159.374C24.4634 166.041 28.7939 171.924 34.3321 176.497C39.8703 181.077 46.4422 184.204 53.4656 185.612C60.489 187.02 67.7517 186.658 74.6065 184.566C81.4612 182.473 87.6958 178.705 92.7607 173.605L100.551 189.298C93.049 195.745 84.0998 200.264 74.4814 202.466C64.8575 204.668 54.8528 204.482 45.3215 201.929C35.7847 199.377 27.0095 194.535 19.7413 187.814C12.4731 181.093 6.93488 172.696 3.59455 163.346C0.25966 153.996 -0.779433 143.966 0.580636 134.123C1.93527 124.28 5.64553 114.919 11.385 106.834C17.1245 98.7491 24.7246 92.1925 33.5378 87.7228C42.3456 83.2476 52.1055 80.9964 61.9687 81.1607C67.1696 81.1607 72.1529 79.0792 75.8251 75.3764C79.4973 71.6736 81.5646 66.6507 81.5646 61.4142C81.5646 56.1776 79.4973 51.1547 75.8251 47.4519C72.1475 43.7491 67.1642 41.6676 61.9687 41.6676H42.3674V76.7622C36.2416 78.411 30.377 80.9252 24.9476 84.2226V24.1286H24.9422ZM119.891 161.445L98.5491 118.452C103.375 115.231 107.765 111.397 111.617 107.048C117.1 114.842 120.707 123.82 122.144 133.263C123.58 142.706 122.807 152.358 119.891 161.45V161.445Z" fill="#7E92F7"/>
</svg>
